<?xml version="1.0" encoding="iso-8859-1"?>
<!-- Generator: Adobe Illustrator 19.0.0, SVG Export Plug-In . SVG Version: 6.00 Build 0)  -->
<svg version="1.1" id="Capa_1" xmlns="http://www.w3.org/2000/svg" xmlns:xlink="http://www.w3.org/1999/xlink" x="0px" y="0px"
	 viewBox="0 0 490.661 490.661" style="enable-background:new 0 0 490.661 490.661;" xml:space="preserve">
<g>
	<g>
		<path d="M229.9,337.211c8.6,10.1,22.8,9.3,31.2,0l224.7-255.9c7.3-8.3,6.2-21.8-2.1-29.1c-8.3-7.3-21.8-6.2-29.1,2.1l-209.1,238.2
			L36.4,54.211c-7.3-8.3-19.8-8.3-29.1-1c-8.3,7.3-8.3,19.8-1,28.1L229.9,337.211z"/>
		<path d="M469.1,401.711H20.8c-11.4,0-20.8,9.4-20.8,20.8s9.4,20.8,20.8,20.8h449.4c10.4,0,19.8-9.4,19.8-20.8
			C489.9,411.111,480.6,401.711,469.1,401.711z"/>
	</g>
</g>
<g>
</g>
<g>
</g>
<g>
</g>
<g>
</g>
<g>
</g>
<g>
</g>
<g>
</g>
<g>
</g>
<g>
</g>
<g>
</g>
<g>
</g>
<g>
</g>
<g>
</g>
<g>
</g>
<g>
</g>
</svg>
