<svg width="124" height="36" viewBox="0 0 124 36" fill="none" xmlns="http://www.w3.org/2000/svg">
<path d="M6.42782 0.584015H0V34.6136H6.42782V0.584015Z" fill="white"/>
<path d="M25.6096 10.2569C22.5679 10.2569 20.1154 11.4719 17.6609 13.8547L17.2688 10.5981H11.9219V34.6134H17.858V22.3621C17.858 18.717 20.3603 15.6537 24.0389 15.6537C27.8649 15.6537 29.8775 18.425 29.8775 22.0702V34.6113H35.8634V22.0208C35.8634 14.4859 31.3008 10.2569 25.6096 10.2569Z" fill="white"/>
<path d="M42.9759 9.38117V10.9848H38.4632V16.1863H42.9759V34.6094H48.9618V16.1883H56.0764V10.9868H48.9618V9.38322C48.9618 6.46587 50.5324 5.10485 52.5927 5.10485C53.819 5.10485 54.9975 5.54276 56.2714 6.36924L58.479 1.9449C56.5162 0.68051 54.3086 0 52.1985 0C47.3434 0 42.9759 2.96464 42.9759 9.38117Z" fill="white"/>
<path d="M66.7202 0.631317H60.7841V34.6116H66.7202V0.631317Z" fill="white"/>
<path d="M90.1222 22.897C90.1222 26.5421 87.6199 29.6054 83.9413 29.6054C80.1153 29.6054 78.1027 26.834 78.1027 23.1889V10.6478H72.1169V23.2382C72.1169 30.6766 76.335 35.0022 82.1258 35.0022C85.5098 35.0022 87.8171 33.8365 90.3193 31.4044L90.7114 34.6609H96.0583V10.6457H90.1222V22.897Z" fill="white"/>
<path d="M99.4299 34.7123H106.692L123.913 10.658L99.4299 34.7123Z" fill="white"/>
<path d="M112.495 18.9823L106.397 10.6949L99.3448 10.7442L110.157 21.2767L112.495 18.9823Z" fill="white"/>
<path d="M116.551 24.4964L115.282 26.2686L123.913 34.6752L124 34.6238L116.551 24.4964Z" fill="white"/>
</svg>
