<svg width="21" height="21" viewBox="0 0 21 21" fill="none" xmlns="http://www.w3.org/2000/svg">
<path d="M19.7632 19.3493L15.5821 15.0244C16.8524 13.4455 17.6174 11.4164 17.6174 9.20773C17.6174 4.18233 13.6661 0.0952148 8.8078 0.0952148C3.95123 0.0952148 0 4.18233 0 9.20591C0 14.2295 3.95123 18.3166 8.8078 18.3166C10.9448 18.3166 12.9047 17.5253 14.4311 16.2114L18.6122 20.5362C18.7718 20.7014 18.9789 20.783 19.1877 20.783C19.3947 20.783 19.6035 20.7014 19.7632 20.5362C20.0807 20.2095 20.0807 19.6778 19.7632 19.3493ZM1.62646 9.20591C1.62646 5.10973 4.8478 1.77761 8.8078 1.77761C12.7678 1.77761 15.9909 5.10973 15.9909 9.20591C15.9909 13.3021 12.7678 16.636 8.8078 16.636C4.8478 16.636 1.62646 13.3021 1.62646 9.20591Z" fill="white"/>
</svg>
