<svg width="14" height="23" viewBox="0 0 14 23" fill="none" xmlns="http://www.w3.org/2000/svg">
<path d="M3.01319 0.454922C2.76903 0.221669 2.44151 0.0908203 2.09017 0.0908203C1.73883 0.0908203 1.41727 0.221669 1.17312 0.454922L0.393024 1.20019C-0.113143 1.68376 -0.113143 2.47455 0.393024 2.95812L9.28966 11.4633L0.381114 19.9742C0.136963 20.2074 0 20.5203 0 20.856C0 21.1916 0.136963 21.5045 0.381114 21.7378L1.16121 22.4831C1.40536 22.7163 1.73288 22.8472 2.08422 22.8472C2.43556 22.8472 2.76308 22.7163 3.00723 22.4831L13.6189 12.3508C13.863 12.1175 14 11.799 14 11.469C14 11.1333 13.863 10.8204 13.6189 10.5872L3.01319 0.454922Z" fill="#5956E9"/>
</svg>
