<svg width="14" height="23" viewBox="0 0 14 23" fill="none" xmlns="http://www.w3.org/2000/svg">
<path d="M10.9868 0.454922C11.231 0.221669 11.5585 0.0908203 11.9098 0.0908203C12.2612 0.0908203 12.5827 0.221669 12.8269 0.454922L13.607 1.20019C14.1131 1.68376 14.1131 2.47455 13.607 2.95812L4.71034 11.4633L13.6189 19.9742C13.863 20.2074 14 20.5203 14 20.856C14 21.1916 13.863 21.5045 13.6189 21.7378L12.8388 22.4831C12.5946 22.7163 12.2671 22.8472 11.9158 22.8472C11.5644 22.8472 11.2369 22.7163 10.9928 22.4831L0.381114 12.3508C0.136962 12.1175 0 11.799 0 11.469C0 11.1333 0.136962 10.8204 0.381114 10.5872L10.9868 0.454922Z" fill="white"/>
</svg>
